# xmcd
#
# Track frame offsets:
#	150
#	15757
#	29411
#
# Disc length: 612 seconds
#
# Revision: 1
# Processed by: cddbd v1.5.2PL0 Copyright (c) Steve Scherf et al.
# Submitted via: audiograbber 1.83.01
#
DISCID=13026203
DTITLE=Die Paldauer - Maxi-CD - Für mich da gibt's nur dich (LC  121677)
DYEAR=2006
DGENRE=Volksmusik
TTITLE0=Für mich da gibt's nur dich
TTITLE1=Wenn mein Herz in deines fällt
TTITLE2=Oh mi amor - das Leben hat mich wieder
EXTD=
EXTT0=
EXTT1=
EXTT2=
PLAYORDER=
